SplineFontDB: 3.0
FontName: Barcode39
FullName: Barcode39
FamilyName: Barcode39
Weight: Regular
Copyright: 
Version: 1
ItalicAngle: 0
UnderlinePosition: 0
UnderlineWidth: 0
Ascent: 1638
Descent: 410
InvalidEm: 0
LayerCount: 2
Layer: 0 0 "Back" 1
Layer: 1 0 "Fore" 0
XUID: [1021 255 1467895372 4489281]
StyleMap: 0x0040
FSType: 0
OS2Version: 1
OS2_WeightWidthSlopeOnly: 0
OS2_UseTypoMetrics: 0
CreationTime: 1597698401
ModificationTime: 1597731993
PfmFamily: 81
TTFWeight: 400
TTFWidth: 5
LineGap: 67
VLineGap: 0
OS2TypoAscent: 2500
OS2TypoAOffset: 0
OS2TypoDescent: 0
OS2TypoDOffset: 0
OS2TypoLinegap: 307
OS2WinAscent: 2500
OS2WinAOffset: 0
OS2WinDescent: 0
OS2WinDOffset: 0
HheadAscent: 2500
HheadAOffset: 0
HheadDescent: 0
HheadDOffset: 0
OS2Vendor: '    '
MarkAttachClasses: 1
DEI: 91125
ShortTable: maxp 16
  1
  0
  46
  28
  5
  0
  0
  2
  16
  47
  66
  0
  1036
  0
  0
  0
EndShort
LangName: 1033
Encoding: UnicodeBmp
Compacted: 1
UnicodeInterp: none
NameList: AGL For New Fonts
DisplaySize: -96
AntiAlias: 1
FitToEm: 0
WinInfo: 13 13 5
BeginPrivate: 0
EndPrivate
TeXData: 1 0 0 346030 173015 115343 0 -1048576 115343 783286 444596 497025 792723 393216 433062 380633 303038 157286 324010 404750 52429 2506097 1059062 262144
BeginChars: 65537 45

StartChar: space
Encoding: 95 95 1
Width: 1600
Flags: HW
LayerCount: 2
Fore
SplineSet
50 0 m 17
 50 2500 l 5
 150 2500 l 5
 150 0 l 9
 50 0 l 17
450 0 m 17
 450 2500 l 5
 750 2500 l 5
 750 0 l 9
 450 0 l 17
850 0 m 17
 850 2500 l 5
 950 2500 l 5
 950 0 l 9
 850 0 l 17
1050 0 m 17
 1050 2500 l 5
 1350 2500 l 5
 1350 0 l 9
 1050 0 l 17
1450 0 m 17
 1450 2500 l 5
 1550 2500 l 5
 1550 0 l 9
 1450 0 l 17
EndSplineSet
Validated: 1
EndChar

StartChar: dollar
Encoding: 36 36 2
Width: 1600
Flags: HW
LayerCount: 2
Fore
SplineSet
50 0 m 17
 50 2500 l 5
 150 2500 l 5
 150 0 l 9
 50 0 l 17
450 0 m 17
 450 2500 l 5
 550 2500 l 5
 550 0 l 9
 450 0 l 17
850 0 m 17
 850 2500 l 5
 950 2500 l 5
 950 0 l 9
 850 0 l 17
1250 0 m 17
 1250 2500 l 5
 1350 2500 l 5
 1350 0 l 9
 1250 0 l 17
1450 0 m 17
 1450 2500 l 5
 1550 2500 l 5
 1550 0 l 9
 1450 0 l 17
EndSplineSet
Validated: 1
EndChar

StartChar: percent
Encoding: 37 37 3
Width: 1600
Flags: HW
LayerCount: 2
Fore
SplineSet
150 2500 m 21
 150 0 l 1
 50 0 l 1
 50 2500 l 13
 150 2500 l 21
250 0 m 17
 250 2500 l 5
 350 2500 l 5
 350 0 l 9
 250 0 l 17
650 0 m 17
 650 2500 l 5
 750 2500 l 5
 750 0 l 9
 650 0 l 17
1050 0 m 17
 1050 2500 l 5
 1150 2500 l 5
 1150 0 l 9
 1050 0 l 17
1450 0 m 17
 1450 2500 l 5
 1550 2500 l 5
 1550 0 l 9
 1450 0 l 17
EndSplineSet
Validated: 1
EndChar

StartChar: asterisk
Encoding: 42 42 4
Width: 1600
Flags: HW
LayerCount: 2
Fore
SplineSet
150 2500 m 21
 150 0 l 1
 50 0 l 1
 50 2500 l 13
 150 2500 l 21
450 0 m 17
 450 2500 l 5
 550 2500 l 5
 550 0 l 9
 450 0 l 17
650 0 m 17
 650 2500 l 5
 950 2500 l 5
 950 0 l 9
 650 0 l 17
1050 0 m 17
 1050 2500 l 5
 1350 2500 l 5
 1350 0 l 9
 1050 0 l 17
1450 0 m 17
 1450 2500 l 5
 1550 2500 l 5
 1550 0 l 9
 1450 0 l 17
EndSplineSet
Validated: 1
EndChar

StartChar: plus
Encoding: 43 43 5
Width: 1600
Flags: HW
LayerCount: 2
Fore
SplineSet
50 0 m 17
 50 2500 l 5
 150 2500 l 5
 150 0 l 9
 50 0 l 17
450 0 m 17
 450 2500 l 5
 550 2500 l 5
 550 0 l 9
 450 0 l 17
650 0 m 17
 650 2500 l 5
 750 2500 l 5
 750 0 l 9
 650 0 l 17
1050 0 m 17
 1050 2500 l 5
 1150 2500 l 5
 1150 0 l 9
 1050 0 l 17
1450 0 m 17
 1450 2500 l 5
 1550 2500 l 5
 1550 0 l 9
 1450 0 l 17
EndSplineSet
Validated: 1
EndChar

StartChar: hyphen
Encoding: 45 45 6
AltUni2: 0000ad.ffffffff.0
Width: 1600
Flags: HW
LayerCount: 2
Fore
SplineSet
50 0 m 17
 50 2500 l 5
 150 2500 l 5
 150 0 l 9
 50 0 l 17
450 0 m 17
 450 2500 l 5
 550 2500 l 5
 550 0 l 9
 450 0 l 17
650 0 m 17
 650 2500 l 5
 750 2500 l 5
 750 0 l 9
 650 0 l 17
850 0 m 17
 850 2500 l 5
 1150 2500 l 5
 1150 0 l 9
 850 0 l 17
1250 0 m 17
 1250 2500 l 5
 1550 2500 l 5
 1550 0 l 9
 1250 0 l 17
EndSplineSet
Validated: 1
EndChar

StartChar: period
Encoding: 46 46 7
Width: 1600
Flags: HW
LayerCount: 2
Fore
SplineSet
50 0 m 21
 50 2500 l 1
 350 2500 l 1
 350 0 l 13
 50 0 l 21
650 0 m 21
 650 2500 l 1
 750 2500 l 1
 750 0 l 13
 650 0 l 21
850 0 m 21
 850 2500 l 1
 950 2500 l 1
 950 0 l 13
 850 0 l 21
1050 0 m 21
 1050 2500 l 1
 1350 2500 l 1
 1350 0 l 13
 1050 0 l 21
1450 0 m 21
 1450 2500 l 1
 1550 2500 l 1
 1550 0 l 13
 1450 0 l 21
EndSplineSet
Validated: 1
EndChar

StartChar: slash
Encoding: 47 47 8
AltUni2: 0000f7.ffffffff.0
Width: 1600
Flags: HW
LayerCount: 2
Fore
SplineSet
50 0 m 17
 50 2500 l 5
 150 2500 l 5
 150 0 l 9
 50 0 l 17
450 0 m 17
 450 2500 l 5
 550 2500 l 5
 550 0 l 9
 450 0 l 17
850 0 m 17
 850 2500 l 5
 950 2500 l 5
 950 0 l 9
 850 0 l 17
1050 0 m 17
 1050 2500 l 5
 1150 2500 l 5
 1150 0 l 9
 1050 0 l 17
1450 0 m 17
 1450 2500 l 5
 1550 2500 l 5
 1550 0 l 9
 1450 0 l 17
EndSplineSet
Validated: 1
EndChar

StartChar: zero
Encoding: 48 48 9
Width: 1600
Flags: HW
LayerCount: 2
Fore
SplineSet
50 0 m 17
 50 2500 l 5
 150 2500 l 5
 150 0 l 9
 50 0 l 17
250 0 m 17
 250 2500 l 5
 350 2500 l 5
 350 0 l 9
 250 0 l 17
650 0 m 17
 650 2500 l 5
 950 2500 l 5
 950 0 l 9
 650 0 l 17
1050 0 m 17
 1050 2500 l 5
 1350 2500 l 5
 1350 0 l 9
 1050 0 l 17
1450 0 m 17
 1450 2500 l 5
 1550 2500 l 5
 1550 0 l 9
 1450 0 l 17
EndSplineSet
Validated: 1
EndChar

StartChar: one
Encoding: 49 49 10
Width: 1600
Flags: HW
LayerCount: 2
Fore
SplineSet
50 0 m 21
 50 2500 l 1
 350 2500 l 1
 350 0 l 13
 50 0 l 21
450 0 m 21
 450 2500 l 1
 550 2500 l 1
 550 0 l 13
 450 0 l 21
850 0 m 21
 850 2500 l 1
 950 2500 l 1
 950 0 l 13
 850 0 l 21
1050 0 m 21
 1050 2500 l 1
 1150 2500 l 1
 1150 0 l 13
 1050 0 l 21
1250 0 m 21
 1250 2500 l 1
 1550 2500 l 1
 1550 0 l 13
 1250 0 l 21
EndSplineSet
Validated: 1
EndChar

StartChar: two
Encoding: 50 50 11
Width: 1600
Flags: HW
LayerCount: 2
Fore
SplineSet
50 0 m 17
 50 2500 l 5
 150 2500 l 5
 150 0 l 9
 50 0 l 17
250 0 m 17
 250 2500 l 5
 550 2500 l 5
 550 0 l 9
 250 0 l 17
850 0 m 17
 850 2500 l 5
 950 2500 l 5
 950 0 l 9
 850 0 l 17
1050 0 m 17
 1050 2500 l 5
 1150 2500 l 5
 1150 0 l 9
 1050 0 l 17
1250 0 m 17
 1250 2500 l 5
 1550 2500 l 5
 1550 0 l 9
 1250 0 l 17
EndSplineSet
Validated: 1
EndChar

StartChar: three
Encoding: 51 51 12
Width: 1600
Flags: HW
LayerCount: 2
Fore
SplineSet
50 0 m 17
 50 2500 l 5
 350 2500 l 5
 350 0 l 9
 50 0 l 17
450 0 m 17
 450 2500 l 5
 750 2500 l 5
 750 0 l 9
 450 0 l 17
1050 0 m 17
 1050 2500 l 5
 1150 2500 l 5
 1150 0 l 9
 1050 0 l 17
1250 0 m 17
 1250 2500 l 5
 1350 2500 l 5
 1350 0 l 9
 1250 0 l 17
1450 0 m 17
 1450 2500 l 5
 1550 2500 l 5
 1550 0 l 9
 1450 0 l 17
EndSplineSet
Validated: 1
EndChar

StartChar: four
Encoding: 52 52 13
Width: 1600
Flags: HW
LayerCount: 2
Fore
SplineSet
50 0 m 17
 50 2500 l 5
 150 2500 l 5
 150 0 l 9
 50 0 l 17
250 0 m 17
 250 2500 l 5
 350 2500 l 5
 350 0 l 9
 250 0 l 17
600 0 m 17
 600 2500 l 5
 900 2500 l 5
 900 0 l 9
 600 0 l 17
1000 0 m 17
 1000 2500 l 5
 1100 2500 l 5
 1100 0 l 9
 1000 0 l 17
1200 0 m 17
 1200 2500 l 5
 1550 2500 l 5
 1550 0 l 9
 1200 0 l 17
EndSplineSet
Validated: 1
EndChar

StartChar: five
Encoding: 53 53 14
Width: 1600
Flags: HW
LayerCount: 2
Fore
SplineSet
50 0 m 17
 50 2500 l 1
 350 2500 l 1
 350 0 l 9
 50 0 l 17
450 0 m 17
 450 2500 l 1
 550 2500 l 1
 550 0 l 9
 450 0 l 17
850 0 m 17
 850 2500 l 1
 1150 2500 l 1
 1150 0 l 9
 850 0 l 17
1250 0 m 17
 1250 2500 l 1
 1350 2500 l 1
 1350 0 l 9
 1250 0 l 17
1450 0 m 17
 1450 2500 l 1
 1550 2500 l 1
 1550 0 l 9
 1450 0 l 17
EndSplineSet
Validated: 1
EndChar

StartChar: six
Encoding: 54 54 15
Width: 1600
Flags: HW
LayerCount: 2
Fore
SplineSet
50 0 m 17
 50 2500 l 5
 150 2500 l 5
 150 0 l 9
 50 0 l 17
250 0 m 17
 250 2500 l 5
 550 2500 l 5
 550 0 l 9
 250 0 l 17
850 0 m 17
 850 2500 l 5
 1150 2500 l 5
 1150 0 l 9
 850 0 l 17
1250 0 m 17
 1250 2500 l 5
 1350 2500 l 5
 1350 0 l 9
 1250 0 l 17
1450 0 m 17
 1450 2500 l 5
 1550 2500 l 5
 1550 0 l 9
 1450 0 l 17
EndSplineSet
Validated: 1
EndChar

StartChar: seven
Encoding: 55 55 16
Width: 1600
Flags: HW
LayerCount: 2
Fore
SplineSet
50 0 m 21
 50 2500 l 1
 150 2500 l 1
 150 0 l 13
 50 0 l 21
250 0 m 21
 250 2500 l 1
 350 2500 l 1
 350 0 l 13
 250 0 l 21
650 0 m 21
 650 2500 l 1
 750 2500 l 1
 750 0 l 13
 650 0 l 21
850 0 m 21
 850 2500 l 1
 1150 2500 l 1
 1150 0 l 13
 850 0 l 21
1250 0 m 21
 1250 2500 l 1
 1550 2500 l 1
 1550 0 l 13
 1250 0 l 21
EndSplineSet
Validated: 1
EndChar

StartChar: eight
Encoding: 56 56 17
Width: 1600
Flags: HW
LayerCount: 2
Fore
SplineSet
50 0 m 17
 50 2500 l 5
 350 2500 l 5
 350 0 l 9
 50 0 l 17
450 0 m 17
 450 2500 l 5
 550 2500 l 5
 550 0 l 9
 450 0 l 17
850 0 m 17
 850 2500 l 5
 950 2500 l 5
 950 0 l 9
 850 0 l 17
1050 0 m 17
 1050 2500 l 5
 1350 2500 l 5
 1350 0 l 9
 1050 0 l 17
1450 0 m 17
 1450 2500 l 5
 1550 2500 l 5
 1550 0 l 9
 1450 0 l 17
EndSplineSet
Validated: 1
EndChar

StartChar: nine
Encoding: 57 57 18
Width: 1600
Flags: HW
LayerCount: 2
Fore
SplineSet
50 0 m 21
 50 2500 l 1
 150 2500 l 1
 150 0 l 13
 50 0 l 21
250 0 m 21
 250 2500 l 1
 550 2500 l 1
 550 0 l 13
 250 0 l 21
850 0 m 21
 850 2500 l 1
 950 2500 l 1
 950 0 l 13
 850 0 l 21
1050 0 m 21
 1050 2500 l 1
 1350 2500 l 1
 1350 0 l 13
 1050 0 l 21
1450 0 m 21
 1450 2500 l 1
 1550 2500 l 1
 1550 0 l 13
 1450 0 l 21
EndSplineSet
Validated: 1
EndChar

StartChar: A
Encoding: 65 65 19
AltUni2: 000061.ffffffff.0
Width: 1600
Flags: HW
LayerCount: 2
Fore
SplineSet
50 0 m 17
 50 2500 l 5
 350 2500 l 5
 350 0 l 9
 50 0 l 17
450 0 m 17
 450 2500 l 5
 550 2500 l 5
 550 0 l 9
 450 0 l 17
650 0 m 17
 650 2500 l 5
 750 2500 l 5
 750 0 l 9
 650 0 l 17
1050 0 m 17
 1050 2500 l 5
 1150 2500 l 5
 1150 0 l 9
 1050 0 l 17
1250 0 m 17
 1250 2500 l 5
 1550 2500 l 5
 1550 0 l 9
 1250 0 l 17
EndSplineSet
Validated: 1
EndChar

StartChar: B
Encoding: 66 66 20
AltUni2: 000062.ffffffff.0
Width: 1600
Flags: HW
LayerCount: 2
Fore
SplineSet
50 0 m 17
 50 2500 l 1
 150 2500 l 1
 150 0 l 9
 50 0 l 17
250 0 m 17
 250 2500 l 1
 550 2500 l 1
 550 0 l 9
 250 0 l 17
650 0 m 17
 650 2500 l 1
 750 2500 l 1
 750 0 l 9
 650 0 l 17
1050 0 m 17
 1050 2500 l 1
 1150 2500 l 1
 1150 0 l 9
 1050 0 l 17
1250 0 m 17
 1250 2500 l 1
 1550 2500 l 1
 1550 0 l 9
 1250 0 l 17
EndSplineSet
Validated: 1
EndChar

StartChar: C
Encoding: 67 67 21
AltUni2: 000063.ffffffff.0
Width: 1600
Flags: HW
LayerCount: 2
Fore
SplineSet
50 0 m 21
 50 2500 l 1
 350 2500 l 1
 350 0 l 13
 50 0 l 21
450 0 m 21
 450 2500 l 1
 750 2500 l 1
 750 0 l 13
 450 0 l 21
850 0 m 21
 850 2500 l 1
 950 2500 l 1
 950 0 l 13
 850 0 l 21
1250 0 m 21
 1250 2500 l 1
 1350 2500 l 1
 1350 0 l 13
 1250 0 l 21
1450 0 m 21
 1450 2500 l 1
 1550 2500 l 1
 1550 0 l 13
 1450 0 l 21
EndSplineSet
Validated: 1
EndChar

StartChar: D
Encoding: 68 68 22
AltUni2: 000064.ffffffff.0
Width: 1600
Flags: HW
LayerCount: 2
Fore
SplineSet
50 0 m 17
 50 2500 l 5
 150 2500 l 5
 150 0 l 9
 50 0 l 17
250 0 m 17
 250 2500 l 5
 350 2500 l 5
 350 0 l 9
 250 0 l 17
450 0 m 17
 450 2500 l 5
 750 2500 l 5
 750 0 l 9
 450 0 l 17
1050 0 m 17
 1050 2500 l 5
 1150 2500 l 5
 1150 0 l 9
 1050 0 l 17
1250 0 m 17
 1250 2500 l 5
 1550 2500 l 5
 1550 0 l 9
 1250 0 l 17
EndSplineSet
Validated: 1
EndChar

StartChar: E
Encoding: 69 69 23
AltUni2: 000065.ffffffff.0
Width: 1600
Flags: HW
LayerCount: 2
Fore
SplineSet
50 0 m 21
 50 2500 l 1
 350 2500 l 1
 350 0 l 13
 50 0 l 21
450 0 m 21
 450 2500 l 1
 550 2500 l 1
 550 0 l 13
 450 0 l 21
650 0 m 21
 650 2500 l 1
 950 2500 l 1
 950 0 l 13
 650 0 l 21
1250 0 m 21
 1250 2500 l 1
 1350 2500 l 1
 1350 0 l 13
 1250 0 l 21
1450 0 m 21
 1450 2500 l 1
 1550 2500 l 1
 1550 0 l 13
 1450 0 l 21
EndSplineSet
Validated: 1
EndChar

StartChar: F
Encoding: 70 70 24
AltUni2: 000066.ffffffff.0
Width: 1600
Flags: HW
LayerCount: 2
Fore
SplineSet
50 0 m 21
 50 2500 l 5
 150 2500 l 5
 150 0 l 13
 50 0 l 21
250 0 m 21
 250 2500 l 5
 550 2500 l 5
 550 0 l 13
 250 0 l 21
650 0 m 21
 650 2500 l 5
 950 2500 l 5
 950 0 l 13
 650 0 l 21
1250 0 m 21
 1250 2500 l 5
 1350 2500 l 5
 1350 0 l 13
 1250 0 l 21
1450 0 m 21
 1450 2500 l 5
 1550 2500 l 5
 1550 0 l 13
 1450 0 l 21
EndSplineSet
Validated: 1
EndChar

StartChar: G
Encoding: 71 71 25
AltUni2: 000067.ffffffff.0
Width: 1600
Flags: HW
LayerCount: 2
Fore
SplineSet
50 0 m 21
 50 2500 l 1
 150 2500 l 1
 150 0 l 13
 50 0 l 21
250 0 m 21
 250 2500 l 1
 350 2500 l 1
 350 0 l 13
 250 0 l 21
450 0 m 21
 450 2500 l 1
 550 2500 l 1
 550 0 l 13
 450 0 l 21
850 0 m 21
 850 2500 l 1
 1150 2500 l 1
 1150 0 l 13
 850 0 l 21
1250 0 m 21
 1250 2500 l 1
 1550 2500 l 1
 1550 0 l 13
 1250 0 l 21
EndSplineSet
Validated: 1
EndChar

StartChar: H
Encoding: 72 72 26
AltUni2: 000068.ffffffff.0
Width: 1600
Flags: HW
LayerCount: 2
Fore
SplineSet
50 0 m 17
 50 2500 l 5
 350 2500 l 5
 350 0 l 9
 50 0 l 17
450 0 m 17
 450 2500 l 5
 550 2500 l 5
 550 0 l 9
 450 0 l 17
650 2500 m 21
 750 2500 l 5
 750 0 l 1
 650 0 l 9
 650 2500 l 21
1050 0 m 17
 1050 2500 l 5
 1350 2500 l 5
 1350 0 l 9
 1050 0 l 17
1450 0 m 17
 1450 2500 l 5
 1550 2500 l 5
 1550 0 l 9
 1450 0 l 17
EndSplineSet
Validated: 1
EndChar

StartChar: I
Encoding: 73 73 27
AltUni2: 000069.ffffffff.0
Width: 1600
Flags: HW
LayerCount: 2
Fore
SplineSet
50 0 m 17
 50 2500 l 5
 150 2500 l 5
 150 0 l 9
 50 0 l 17
250 0 m 17
 250 2500 l 5
 550 2500 l 5
 550 0 l 9
 250 0 l 17
650 0 m 17
 650 2500 l 5
 750 2500 l 5
 750 0 l 9
 650 0 l 17
1050 0 m 17
 1050 2500 l 5
 1350 2500 l 5
 1350 0 l 9
 1050 0 l 17
1450 0 m 17
 1450 2500 l 5
 1550 2500 l 5
 1550 0 l 9
 1450 0 l 17
EndSplineSet
Validated: 1
EndChar

StartChar: J
Encoding: 74 74 28
AltUni2: 00006a.ffffffff.0
Width: 1600
Flags: HW
LayerCount: 2
Fore
SplineSet
50 0 m 17
 50 2500 l 5
 150 2500 l 5
 150 0 l 9
 50 0 l 17
250 0 m 17
 250 2500 l 5
 350 2500 l 5
 350 0 l 9
 250 0 l 17
450 0 m 17
 450 2500 l 5
 750 2500 l 5
 750 0 l 9
 450 0 l 17
1050 0 m 17
 1050 2500 l 5
 1350 2500 l 5
 1350 0 l 9
 1050 0 l 17
1450 0 m 17
 1450 2500 l 5
 1550 2500 l 5
 1550 0 l 9
 1450 0 l 17
EndSplineSet
Validated: 1
EndChar

StartChar: K
Encoding: 75 75 29
AltUni2: 00006b.ffffffff.0
Width: 1600
Flags: HW
LayerCount: 2
Fore
SplineSet
50 0 m 21
 50 2500 l 1
 350 2500 l 1
 350 0 l 13
 50 0 l 21
450 0 m 21
 450 2500 l 1
 550 2500 l 1
 550 0 l 13
 450 0 l 21
650 0 m 21
 650 2500 l 1
 750 2500 l 1
 750 0 l 13
 650 0 l 21
850 0 m 21
 850 2500 l 1
 950 2500 l 1
 950 0 l 13
 850 0 l 21
1250 0 m 21
 1250 2500 l 1
 1550 2500 l 1
 1550 0 l 13
 1250 0 l 21
EndSplineSet
Validated: 1
EndChar

StartChar: L
Encoding: 76 76 30
AltUni2: 00006c.ffffffff.0
Width: 1600
Flags: HW
LayerCount: 2
Fore
SplineSet
50 0 m 17
 50 2500 l 5
 150 2500 l 5
 150 0 l 9
 50 0 l 17
250 0 m 17
 250 2500 l 5
 550 2500 l 5
 550 0 l 9
 250 0 l 17
650 0 m 17
 650 2500 l 5
 750 2500 l 5
 750 0 l 9
 650 0 l 17
850 0 m 17
 850 2500 l 5
 950 2500 l 5
 950 0 l 9
 850 0 l 17
1250 0 m 17
 1250 2500 l 5
 1550 2500 l 5
 1550 0 l 9
 1250 0 l 17
EndSplineSet
Validated: 1
EndChar

StartChar: M
Encoding: 77 77 31
AltUni2: 00006d.ffffffff.0
Width: 1600
Flags: HW
LayerCount: 2
Fore
SplineSet
50 0 m 21
 50 2500 l 1
 350 2500 l 1
 350 0 l 13
 50 0 l 21
450 0 m 21
 450 2500 l 1
 750 2500 l 1
 750 0 l 13
 450 0 l 21
850 0 m 21
 850 2500 l 1
 950 2500 l 1
 950 0 l 13
 850 0 l 21
1050 0 m 21
 1050 2500 l 1
 1150 2500 l 1
 1150 0 l 13
 1050 0 l 21
1450 0 m 21
 1450 2500 l 1
 1550 2500 l 1
 1550 0 l 13
 1450 0 l 21
EndSplineSet
Validated: 1
EndChar

StartChar: N
Encoding: 78 78 32
AltUni2: 00006e.ffffffff.0
Width: 1600
Flags: HW
LayerCount: 2
Fore
SplineSet
50 0 m 17
 50 2500 l 5
 150 2500 l 5
 150 0 l 9
 50 0 l 17
250 0 m 17
 250 2500 l 5
 350 2500 l 5
 350 0 l 9
 250 0 l 17
450 0 m 17
 450 2500 l 5
 750 2500 l 5
 750 0 l 9
 450 0 l 17
850 0 m 17
 850 2500 l 5
 950 2500 l 5
 950 0 l 9
 850 0 l 17
1250 0 m 17
 1250 2500 l 5
 1550 2500 l 5
 1550 0 l 9
 1250 0 l 17
EndSplineSet
Validated: 1
EndChar

StartChar: O
Encoding: 79 79 33
AltUni2: 00006f.ffffffff.0
Width: 1600
Flags: HW
LayerCount: 2
Fore
SplineSet
50 0 m 17
 50 2500 l 5
 350 2500 l 5
 350 0 l 9
 50 0 l 17
450 0 m 17
 450 2500 l 5
 550 2500 l 5
 550 0 l 9
 450 0 l 17
650 0 m 17
 650 2500 l 5
 950 2500 l 5
 950 0 l 9
 650 0 l 17
1050 0 m 17
 1050 2500 l 5
 1150 2500 l 5
 1150 0 l 9
 1050 0 l 17
1450 0 m 17
 1450 2500 l 5
 1550 2500 l 5
 1550 0 l 9
 1450 0 l 17
EndSplineSet
Validated: 1
EndChar

StartChar: P
Encoding: 80 80 34
AltUni2: 000070.ffffffff.0
Width: 1600
Flags: HW
LayerCount: 2
Fore
SplineSet
50 0 m 17
 50 2500 l 5
 150 2500 l 5
 150 0 l 9
 50 0 l 17
1550 2500 m 21
 1550 0 l 1
 1450 0 l 1
 1450 2500 l 13
 1550 2500 l 21
250 0 m 17
 250 2500 l 5
 550 2500 l 5
 550 0 l 9
 250 0 l 17
650 0 m 17
 650 2500 l 5
 950 2500 l 5
 950 0 l 9
 650 0 l 17
1050 0 m 17
 1050 2500 l 5
 1150 2500 l 5
 1150 0 l 9
 1050 0 l 17
EndSplineSet
Validated: 1
EndChar

StartChar: Q
Encoding: 81 81 35
AltUni2: 000071.ffffffff.0
Width: 1600
Flags: HW
LayerCount: 2
Fore
SplineSet
50 0 m 17
 50 2500 l 5
 150 2500 l 5
 150 0 l 9
 50 0 l 17
250 0 m 17
 250 2500 l 5
 350 2500 l 5
 350 0 l 9
 250 0 l 17
450 0 m 17
 450 2500 l 5
 550 2500 l 5
 550 0 l 9
 450 0 l 17
650 0 m 17
 650 2500 l 5
 950 2500 l 5
 950 0 l 9
 650 0 l 17
1250 0 m 17
 1250 2500 l 5
 1550 2500 l 5
 1550 0 l 9
 1250 0 l 17
EndSplineSet
Validated: 1
EndChar

StartChar: R
Encoding: 82 82 36
AltUni2: 000072.ffffffff.0
Width: 1600
Flags: HW
LayerCount: 2
Fore
SplineSet
50 0 m 17
 50 2500 l 5
 350 2500 l 5
 350 0 l 9
 50 0 l 17
450 0 m 17
 450 2500 l 5
 550 2500 l 5
 550 0 l 9
 450 0 l 17
650 0 m 17
 650 2500 l 5
 750 2500 l 5
 750 0 l 9
 650 0 l 17
850 0 m 17
 850 2500 l 5
 1150 2500 l 5
 1150 0 l 9
 850 0 l 17
1450 0 m 17
 1450 2500 l 5
 1550 2500 l 5
 1550 0 l 9
 1450 0 l 17
EndSplineSet
Validated: 1
EndChar

StartChar: S
Encoding: 83 83 37
AltUni2: 000073.ffffffff.0
Width: 1600
Flags: HW
LayerCount: 2
Fore
SplineSet
50 0 m 17
 50 2500 l 5
 150 2500 l 5
 150 0 l 9
 50 0 l 17
250 0 m 17
 250 2500 l 5
 550 2500 l 5
 550 0 l 9
 250 0 l 17
650 0 m 17
 650 2500 l 5
 750 2500 l 5
 750 0 l 9
 650 0 l 17
850 0 m 17
 850 2500 l 5
 1150 2500 l 5
 1150 0 l 9
 850 0 l 17
1450 0 m 17
 1450 2500 l 5
 1550 2500 l 5
 1550 0 l 9
 1450 0 l 17
EndSplineSet
Validated: 1
EndChar

StartChar: T
Encoding: 84 84 38
AltUni2: 000074.ffffffff.0
Width: 1600
Flags: HW
LayerCount: 2
Fore
SplineSet
50 0 m 17
 50 2500 l 5
 150 2500 l 5
 150 0 l 9
 50 0 l 17
250 0 m 17
 250 2500 l 5
 350 2500 l 5
 350 0 l 9
 250 0 l 17
450 0 m 17
 450 2500 l 5
 750 2500 l 5
 750 0 l 9
 450 0 l 17
850 0 m 17
 850 2500 l 5
 1150 2500 l 5
 1150 0 l 9
 850 0 l 17
1450 0 m 17
 1450 2500 l 5
 1550 2500 l 5
 1550 0 l 9
 1450 0 l 17
EndSplineSet
Validated: 1
EndChar

StartChar: U
Encoding: 85 85 39
AltUni2: 000075.ffffffff.0
Width: 1600
Flags: HW
LayerCount: 2
Fore
SplineSet
50 0 m 17
 50 2500 l 5
 350 2500 l 5
 350 0 l 9
 50 0 l 17
650 0 m 17
 650 2500 l 5
 750 2500 l 5
 750 0 l 9
 650 0 l 17
850 0 m 17
 850 2500 l 5
 950 2500 l 5
 950 0 l 9
 850 0 l 17
1050 0 m 17
 1050 2500 l 5
 1150 2500 l 5
 1150 0 l 9
 1050 0 l 17
1250 0 m 17
 1250 2500 l 5
 1550 2500 l 5
 1550 0 l 9
 1250 0 l 17
EndSplineSet
Validated: 1
EndChar

StartChar: V
Encoding: 86 86 40
AltUni2: 000076.ffffffff.0
Width: 1600
Flags: HW
LayerCount: 2
Fore
SplineSet
50 0 m 17
 50 2500 l 5
 150 2500 l 5
 150 0 l 9
 50 0 l 17
450 0 m 17
 450 2500 l 5
 750 2500 l 5
 750 0 l 9
 450 0 l 17
850 0 m 17
 850 2500 l 5
 950 2500 l 5
 950 0 l 9
 850 0 l 17
1050 0 m 17
 1050 2500 l 5
 1150 2500 l 5
 1150 0 l 9
 1050 0 l 17
1250 0 m 17
 1250 2500 l 5
 1550 2500 l 5
 1550 0 l 9
 1250 0 l 17
EndSplineSet
Validated: 1
EndChar

StartChar: W
Encoding: 87 87 41
AltUni2: 000077.ffffffff.0
Width: 1600
Flags: HW
LayerCount: 2
Fore
SplineSet
50 0 m 17
 50 2500 l 5
 350 2500 l 5
 350 0 l 9
 50 0 l 17
650 0 m 17
 650 2500 l 5
 950 2500 l 5
 950 0 l 9
 650 0 l 17
1050 0 m 17
 1050 2500 l 5
 1150 2500 l 5
 1150 0 l 9
 1050 0 l 17
1250 0 m 17
 1250 2500 l 5
 1350 2500 l 5
 1350 0 l 9
 1250 0 l 17
1450 0 m 17
 1450 2500 l 5
 1550 2500 l 5
 1550 0 l 9
 1450 0 l 17
EndSplineSet
Validated: 1
EndChar

StartChar: X
Encoding: 88 88 42
AltUni2: 000078.ffffffff.0
Width: 1600
Flags: HW
LayerCount: 2
Fore
SplineSet
50 0 m 17
 50 2500 l 5
 150 2500 l 5
 150 0 l 9
 50 0 l 17
450 0 m 17
 450 2500 l 5
 550 2500 l 5
 550 0 l 9
 450 0 l 17
650 0 m 17
 650 2500 l 5
 950 2500 l 5
 950 0 l 9
 650 0 l 17
1050 0 m 17
 1050 2500 l 5
 1150 2500 l 5
 1150 0 l 9
 1050 0 l 17
1250 0 m 17
 1250 2500 l 5
 1550 2500 l 5
 1550 0 l 9
 1250 0 l 17
EndSplineSet
Validated: 1
EndChar

StartChar: Y
Encoding: 89 89 43
AltUni2: 000079.ffffffff.0
Width: 1600
Flags: HW
LayerCount: 2
Fore
SplineSet
50 0 m 17
 50 2500 l 5
 350 2500 l 5
 350 0 l 9
 50 0 l 17
650 0 m 17
 650 2500 l 5
 750 2500 l 5
 750 0 l 9
 650 0 l 17
850 0 m 17
 850 2500 l 5
 1150 2500 l 5
 1150 0 l 9
 850 0 l 17
1250 0 m 17
 1250 2500 l 5
 1350 2500 l 5
 1350 0 l 9
 1250 0 l 17
1450 0 m 17
 1450 2500 l 5
 1550 2500 l 5
 1550 0 l 9
 1450 0 l 17
EndSplineSet
Validated: 1
EndChar

StartChar: Z
Encoding: 90 90 44
AltUni2: 00007a.ffffffff.0
Width: 1600
Flags: HW
LayerCount: 2
Fore
SplineSet
50 0 m 17
 50 2500 l 5
 150 2500 l 5
 150 0 l 9
 50 0 l 17
450 0 m 17
 450 2500 l 5
 750 2500 l 5
 750 0 l 9
 450 0 l 17
850 0 m 17
 850 2500 l 5
 1150 2500 l 5
 1150 0 l 9
 850 0 l 17
1250 0 m 17
 1250 2500 l 5
 1350 2500 l 5
 1350 0 l 9
 1250 0 l 17
1450 0 m 17
 1450 2500 l 5
 1550 2500 l 5
 1550 0 l 9
 1450 0 l 17
EndSplineSet
Validated: 1
EndChar
